<?xml version="1.0" encoding="UTF-8" standalone="no"?>
<!-- Created with Inkscape (http://www.inkscape.org/) -->

<svg
   width="200mm"
   height="200mm"
   viewBox="0 0 200 200"
   version="1.1"
   id="svg1"
   xml:space="preserve"
   inkscape:version="1.4 (86a8ad7, 2024-10-11)"
   sodipodi:docname="CodeClayTools.svg"
   xmlns:inkscape="http://www.inkscape.org/namespaces/inkscape"
   xmlns:sodipodi="http://sodipodi.sourceforge.net/DTD/sodipodi-0.dtd"
   xmlns="http://www.w3.org/2000/svg"
   xmlns:svg="http://www.w3.org/2000/svg"><sodipodi:namedview
     id="namedview1"
     pagecolor="#000000"
     bordercolor="#000000"
     borderopacity="0.25"
     inkscape:showpageshadow="2"
     inkscape:pageopacity="0.0"
     inkscape:pagecheckerboard="true"
     inkscape:deskcolor="#d1d1d1"
     inkscape:document-units="mm"
     inkscape:zoom="1.0396254"
     inkscape:cx="337.14066"
     inkscape:cy="393.41093"
     inkscape:window-width="1956"
     inkscape:window-height="1364"
     inkscape:window-x="-9"
     inkscape:window-y="-2"
     inkscape:window-maximized="0"
     inkscape:current-layer="CodeClay" /><defs
     id="defs1" /><g
     inkscape:label="CodeClay"
     inkscape:groupmode="layer"
     id="CodeClay"
     transform="translate(-15.841156,-84.944421)"><path
       id="Orange_color"
       style="display:inline;fill:#ff7f2a;fill-opacity:1"
       inkscape:label="Orange color"
       d="m 161.56927,136.9454 c 2.88621,-0.17901 7.99613,-0.61763 10.23055,-0.87817 4.52008,-0.52704 4.44657,-0.51643 8.0257,-1.15905 6.00764,-1.07866 10.12332,-2.19801 13.00922,-3.53813 1.37154,-0.63691 1.87358,-1.23623 1.5184,-1.81264 -0.89481,-1.45214 -9.6376,-3.89773 -17.43804,-4.87789 -1.16416,-0.14629 -2.71198,-0.34632 -3.43958,-0.44452 -1.50078,-0.20256 -4.4439,-0.46484 -7.9375,-0.70738 -1.30969,-0.0909 -3.53219,-0.24511 -4.93889,-0.34264 -8.63339,-0.59854 -24.71783,-0.23137 -33.95486,0.7751 -4.22261,0.4601 -7.88633,0.9375 -8.90764,1.1607 -0.43656,0.0954 -1.62717,0.33971 -2.64582,0.54288 -4.73557,0.94452 -6.72685,1.51804 -8.99583,2.59093 -3.09077,1.46148 -2.50543,2.51954 2.30161,4.16035 4.00019,1.36542 10.17609,2.7007 15.24907,3.29698 0.87313,0.10262 2.18281,0.26124 2.91042,0.35249 3.82877,0.48014 8.49362,0.86804 12.6118,1.04871 3.98535,0.17484 18.64822,0.0651 22.40139,-0.16772 z m -2.91832,110.67803 c 4.60001,-0.3476 7.15963,-0.69266 10.67943,-1.4397 1.77204,-0.3761 4.04212,-0.99331 4.7625,-1.29488 1.56863,-0.65666 2.83003,-1.29351 3.3547,-1.69369 0.72106,-0.54999 2.06828,-2.66293 3.71387,-5.82475 1.08299,-2.08086 1.27757,-2.66662 0.7409,-2.23047 -0.22628,0.1839 -2.26633,0.90184 -3.57614,1.25853 -1.3268,0.36131 -3.87951,0.69951 -6.2144,0.8233 -2.01102,0.10663 -2.3953,0.0835 -2.77812,-0.16735 -0.56733,-0.37173 -0.62658,-1.47443 -0.10461,-1.9468 0.38016,-0.34405 2.0641,-0.61065 3.98186,-0.63041 1.09397,-0.0113 2.74287,-0.29893 4.93888,-0.86161 1.95052,-0.49978 5.75367,-2.33769 6.61565,-3.19709 0.38754,-0.38637 1.20308,-1.7898 2.16263,-3.72159 0.84726,-1.70572 1.54047,-3.15101 1.54047,-3.21175 0,-0.0853 0.90593,-2.06503 1.18933,-2.59908 0.0288,-0.0542 -0.64378,0.13701 -1.49455,0.42492 -1.53174,0.51835 -1.59858,0.52474 -6.83853,0.65411 -2.91041,0.0719 -5.7084,0.21321 -6.21775,0.31411 -1.20967,0.23965 -3.74295,1.0319 -4.58408,1.43361 -2.06205,0.98479 -2.41567,1.10035 -3.09033,1.00986 -1.13622,-0.1524 -1.55929,-1.13252 -0.79221,-1.83532 0.49314,-0.45182 1.38919,-0.90473 3.41121,-1.72422 0.86448,-0.35036 1.73053,-0.70913 1.92455,-0.79728 0.19403,-0.0881 0.70997,-0.25273 1.14653,-0.36575 2.57593,-0.66685 3.1623,-0.72514 7.76111,-0.77158 5.31792,-0.0537 5.79523,-0.13159 8.46667,-1.38179 1.60304,-0.7502 2.40402,-1.42594 2.82943,-2.38702 1.16859,-2.64008 3.70742,-9.36312 3.99937,-10.59063 0.0961,-0.40398 0.0859,-0.40826 -0.32687,-0.13779 -0.94803,0.62118 -5.73771,1.94048 -6.69881,1.84517 -0.36252,-0.0359 -0.68699,-0.22392 -0.91417,-0.52957 -0.30225,-0.40668 -0.32242,-0.54567 -0.14225,-0.98062 0.22801,-0.55048 1.01294,-1.10318 1.56668,-1.10318 0.52721,0 2.94462,-0.8258 4.10991,-1.40396 1.32261,-0.65621 3.37464,-2.2903 3.8201,-3.04204 0.30482,-0.5144 0.47945,-1.1956 1.12113,-4.37345 0.15355,-0.76042 0.40946,-2.77393 0.6388,-5.02621 l 0.10768,-1.05746 -0.68689,0.6031 c -1.87728,1.64827 -7.27645,3.35658 -7.84433,2.48196 -0.74703,-1.15053 -0.31577,-1.87336 1.41883,-2.37807 2.49557,-0.72614 4.41863,-1.82025 5.94216,-3.38075 0.51331,-0.52576 0.987,-1.16994 1.05265,-1.43151 0.12224,-0.48702 -0.36453,-5.63306 -0.63795,-6.74439 -0.0835,-0.33955 -0.28799,-1.21267 -0.45433,-1.94028 -0.33218,-1.45305 -0.73678,-2.89177 -0.96728,-3.43958 -0.0816,-0.19403 -0.43697,-1.14257 -0.78963,-2.10787 -0.35265,-0.9653 -0.79768,-2.0986 -0.98894,-2.51844 l -0.34774,-0.76335 -0.9194,0.75455 c -0.50567,0.415 -0.95909,0.79685 -1.0076,0.84854 -0.2064,0.21994 -1.91487,1.22501 -2.64583,1.5565 -0.43656,0.19799 -1.54781,0.60833 -2.46944,0.91189 -0.92164,0.30355 -1.92582,0.66479 -2.23152,0.80276 -0.30571,0.13796 -0.60753,0.25084 -0.67071,0.25084 -0.43704,0 -3.4237,2.2785 -4.77404,3.64208 -1.40392,1.41767 -1.7153,1.64958 -2.21486,1.64958 -0.69899,0 -1.39776,-0.59029 -1.39776,-1.18078 0,-1.2732 3.5697,-4.58007 6.70277,-6.20927 1.18633,-0.61689 2.00032,-0.9266 5.02709,-1.91275 0.48507,-0.15804 1.32735,-0.54786 1.87174,-0.86626 1.03485,-0.60526 2.86928,-2.43667 3.06807,-3.06302 0.14477,-0.45613 -0.50217,-1.72751 -2.55765,-5.02626 -2.33118,-3.74121 -3.57583,-6.30918 -4.60533,-9.50179 -0.18396,-0.57047 -0.33447,-1.15519 -0.33447,-1.29939 0,-0.18694 -0.1139,-0.23056 -0.39688,-0.15201 -0.21828,0.0606 -1.11125,0.2724 -1.98437,0.47067 -0.87313,0.19828 -1.87452,0.43577 -2.22533,0.52777 -1.28948,0.33815 -2.27626,0.0982 -2.92844,-0.71226 -0.40769,-0.50661 -0.27083,-1.51805 0.27995,-2.06883 0.52955,-0.52954 1.01374,-0.72548 3.19812,-1.29416 1.88939,-0.49188 2.53281,-0.68211 4.32153,-1.27767 1.7463,-0.58144 5.11046,-2.11529 5.60675,-2.55635 0.37051,-0.32927 0.92124,-1.51704 1.09245,-2.35612 0.0664,-0.32541 0.19139,-0.82978 0.27775,-1.12082 0.39633,-1.33561 0.67321,-2.33185 0.76955,-2.76888 l 0.10489,-0.47582 -0.92708,0.40434 c -2.85868,1.2468 -7.77898,2.57742 -13.09792,3.54214 -0.87312,0.15837 -1.98437,0.36003 -2.46944,0.44815 -0.48507,0.0881 -1.79476,0.27709 -2.91042,0.41994 -1.11566,0.14284 -2.70316,0.34637 -3.52778,0.45229 -7.7355,0.99356 -23.37679,1.36401 -33.51388,0.79375 -8.4087,-0.47304 -15.39263,-1.25523 -20.54931,-2.30152 -0.7761,-0.15747 -1.76828,-0.35762 -2.20485,-0.44479 -3.26647,-0.65217 -7.84837,-2.00205 -9.60222,-2.82893 -0.38202,-0.18011 -0.7282,-0.32748 -0.76928,-0.32748 -0.0957,0 0.10947,1.18766 0.30465,1.76389 0.0821,0.24254 0.28613,0.95691 0.45329,1.5875 0.16715,0.63059 0.36652,1.30528 0.44303,1.49931 0.0765,0.19403 0.23563,0.60956 0.3536,0.92341 0.84978,2.26065 11.0402,5.20494 23.10442,6.67548 1.21267,0.14782 2.73436,0.33412 3.38152,0.41402 1.38941,0.17152 2.15187,0.64113 2.4353,1.49993 0.24314,0.73673 -0.10295,1.72027 -0.7219,2.05152 -1.31693,0.70481 -15.3613,-1.23962 -20.51851,-2.84076 -1.41165,-0.43827 -1.56315,-0.36027 -1.77874,0.91585 -0.29649,1.75491 -1.62118,4.64777 -4.47079,9.76332 -2.65255,4.76181 -3.17456,5.73198 -3.89126,7.23195 -1.04878,2.19497 -1.4231,3.05139 -1.4231,3.25591 0,0.10365 -0.0744,0.32629 -0.16543,0.49475 -0.21001,0.38881 -0.98474,2.55494 -1.24512,3.48128 -0.56532,2.01127 -1.205938,4.68775 -1.308788,5.46806 -0.06394,0.48507 -0.158265,1.09581 -0.209621,1.3572 -0.08419,0.42849 -0.0098,0.51284 0.756329,0.85724 2.19799,0.98808 2.74001,1.84329 3.85076,6.07583 0.22914,0.87313 0.54595,2.02407 0.70402,2.55764 0.15808,0.53358 0.32923,1.12889 0.38033,1.32292 0.0511,0.19403 0.19478,0.70996 0.31927,1.14653 0.1245,0.43656 0.32367,1.15093 0.44262,1.5875 0.11895,0.43656 0.3179,1.11125 0.44211,1.4993 0.12421,0.38806 0.36358,1.18181 0.53193,1.76389 0.16835,0.58208 0.48626,1.65365 0.70648,2.38125 0.22021,0.72761 0.53268,1.79917 0.69438,2.38125 0.1617,0.58208 0.46066,1.61396 0.66436,2.29306 0.20371,0.67909 0.42898,1.47284 0.50062,1.76388 0.0716,0.29105 0.4154,1.52136 0.76394,2.73403 0.91888,3.19713 1.22579,4.28321 1.66983,5.90903 1.29714,4.74937 1.36406,4.93999 1.71292,4.87911 0.18839,-0.0329 1.30108,-0.0587 2.47263,-0.0573 l 2.13009,0.002 0.22876,-0.64826 c 1.42027,-4.02466 4.79649,-7.48141 8.13201,-8.32596 2.90708,-0.73607 6.2267,-0.57414 9.29067,0.4532 0.58272,0.19538 0.9477,0.20925 1.67569,0.0637 0.5119,-0.10235 1.68478,-0.29507 2.60641,-0.42826 5.20049,-0.75156 8.12056,-1.75289 10.93084,-3.74834 1.65596,-1.17582 4.53259,-4.03196 6.1474,-6.10362 1.45812,-1.87063 3.03009,-4.07454 3.03009,-4.24818 0,-0.056 0.18606,-0.3979 0.41347,-0.75977 0.22741,-0.36188 0.95688,-1.71579 1.62104,-3.00869 0.66417,-1.2929 1.40162,-2.50337 1.63879,-2.68993 0.66155,-0.52037 1.64206,-0.44698 2.30527,0.17255 0.84549,0.7898 0.76842,1.62247 -0.353,3.81358 -1.84705,3.6089 -3.84292,6.6648 -6.1793,9.46118 -4.26728,5.10748 -7.58781,7.68575 -12.23446,9.49959 -0.55147,0.21527 -2.49227,0.65529 -4.23333,0.95978 -2.11222,0.3694 -3.08604,0.55872 -4.70587,0.91489 -1.27717,0.28083 -1.43323,0.28033 -2.73403,-0.009 -0.75875,-0.16862 -1.55368,-0.37651 -1.76651,-0.46197 -0.21284,-0.0855 -1.2298,-0.25336 -2.25991,-0.3731 -2.14887,-0.24979 -3.39222,-0.081 -4.99857,0.67863 -1.73737,0.82159 -3.78435,3.36422 -4.59879,5.71237 -0.42628,1.22902 -0.6275,3.27227 -0.38491,3.90838 0.16047,0.42077 0.28136,0.48507 0.91187,0.48507 1.90761,0 3.32822,-0.82558 4.12942,-2.39981 0.70075,-1.37684 1.85314,-3.05876 2.29342,-3.34724 0.70695,-0.46321 1.82162,-0.24245 2.42812,0.4809 0.6756,0.80576 0.62392,1.42073 -0.24269,2.8877 -1.26929,2.14861 -1.61689,3.06279 -1.38105,3.63216 0.40686,0.98224 1.83504,1.38089 2.61762,0.73066 0.20434,-0.16977 1.02853,-1.22149 1.83154,-2.33715 0.99969,-1.38891 1.66681,-2.1397 2.11587,-2.38125 l 0.65585,-0.35278 0.83392,0.44098 c 0.79515,0.42046 0.97362,0.44097 3.83806,0.44097 1.90956,0 3.32548,-0.0842 3.88608,-0.23099 2.55912,-0.67024 3.18612,-0.85277 5.33532,-1.55316 5.67662,-1.84993 9.81434,-4.07781 14.34465,-7.72361 1.62338,-1.30643 4.66942,-4.27803 6.27684,-6.12344 1.10418,-1.26767 4.59778,-6.15293 4.84158,-6.77019 0.0383,-0.097 0.42658,-0.81139 0.86282,-1.5875 0.43623,-0.77611 1.34904,-2.52236 2.02847,-3.88055 1.20467,-2.40817 1.25366,-2.47525 1.97423,-2.70331 0.63913,-0.20228 0.81881,-0.19594 1.33066,0.0469 1.0765,0.51083 1.41517,1.62861 0.82982,2.73876 -0.0784,0.14871 -0.76934,1.54037 -1.5354,3.0926 -2.87734,5.83017 -6.28717,10.58687 -10.87991,15.17743 -4.85507,4.85278 -9.45118,7.93056 -15.39819,10.3114 -1.5991,0.64018 -2.28661,0.99638 -2.17876,1.1288 0.68662,0.84307 0.94902,4.45405 0.46007,6.33124 -0.57055,2.19051 -1.91279,4.12966 -3.66173,5.29014 -0.82863,0.54982 -2.43316,1.19443 -4.1895,1.68309 -0.33954,0.0945 -1.84767,0.53756 -3.35138,0.98464 -4.57103,1.35905 -4.43137,1.31921 -7.49653,2.13884 -0.48507,0.12971 -1.31851,0.36537 -1.85208,0.52368 -1.39256,0.41319 -1.82992,0.53487 -3.70417,1.03059 -3.70732,0.98056 -5.11528,1.39925 -5.11528,1.52114 0,0.18039 2.38022,1.04086 4.18341,1.51236 3.19111,0.83439 5.22533,1.159 10.36867,1.6546 4.40773,0.42471 14.70099,0.47969 19.65946,0.105 z" /><path
       id="Laptop_color"
       style="display:inline;fill:#b3b3b3;fill-opacity:1"
       inkscape:label="Laptop color"
       d="m 117.23225,242.33804 c 0.908,-0.23685 2.6431,-0.72152 3.85577,-1.07706 1.21268,-0.35554 2.44299,-0.70753 2.73403,-0.78221 0.68463,-0.17567 6.88789,-1.99052 8.37847,-2.45123 1.08464,-0.33524 5.10403,-1.51188 8.20209,-2.40107 6.96839,-2.00004 7.38262,-2.15352 8.24326,-3.05413 0.60204,-0.63001 1.10729,-1.41465 0.98734,-1.53333 -0.0321,-0.0318 -1.48713,0.36562 -3.23338,0.8831 -1.74625,0.51747 -4.80219,1.38966 -6.79097,1.9382 -1.98879,0.54853 -3.81441,1.0644 -4.05695,1.14637 -0.24253,0.082 -0.87753,0.2721 -1.41111,0.4225 -0.53358,0.1504 -1.52576,0.44211 -2.20486,0.64825 -0.6791,0.20614 -2.10785,0.6112 -3.175,0.90014 -3.99858,1.08264 -5.02412,1.37086 -8.37847,2.35473 -1.89177,0.55489 -3.9952,1.16882 -4.6743,1.36431 -1.47934,0.42585 -4.14767,0.4931 -7.05555,0.17782 -1.06715,-0.1157 -2.77371,-0.29118 -3.79236,-0.38994 -1.01864,-0.0988 -2.56646,-0.25914 -3.43958,-0.35641 -1.451264,-0.16167 -4.362405,-0.45591 -8.731251,-0.88251 -0.921631,-0.09 -2.271006,-0.20961 -2.99861,-0.26581 -0.727605,-0.0562 -1.957917,-0.17744 -2.734028,-0.26941 -1.661462,-0.19688 -5.626951,-0.59724 -8.731249,-0.8815 -1.212674,-0.11105 -2.958924,-0.27849 -3.880556,-0.3721 -0.921631,-0.0936 -2.429756,-0.24476 -3.351388,-0.3359 -0.921632,-0.0911 -2.906007,-0.2886 -4.409722,-0.43881 -1.503715,-0.1502 -3.607153,-0.35165 -4.674305,-0.44764 -1.067153,-0.096 -3.17059,-0.29512 -4.674305,-0.44249 -1.503716,-0.14737 -3.289653,-0.30684 -3.96875,-0.35438 -0.679097,-0.0475 -1.651441,-0.11831 -2.160764,-0.15727 -1.219222,-0.0933 -1.219222,0.20131 0,1.11669 1.130452,0.84873 1.776896,1.02989 4.470874,1.25288 2.13429,0.17667 5.829588,0.50887 10.919056,0.98161 1.552222,0.14417 3.774721,0.33753 4.938888,0.42968 1.927663,0.15259 6.301452,0.54618 8.731249,0.78571 0.533577,0.0526 2.359202,0.21701 4.056944,0.36535 1.697743,0.14835 3.801181,0.34803 4.674306,0.44375 0.873125,0.0957 3.016249,0.29353 4.762499,0.43959 6.428432,0.53766 10.688672,0.92797 15.169442,1.38975 3.88383,0.40026 6.47861,0.3548 8.40324,-0.14723 z m -4.73196,-5.63975 c 0.25277,-0.23427 0.50911,-0.62323 0.56963,-0.86436 0.12478,-0.49719 -0.45729,-2.95146 -1.32552,-5.58887 -0.1361,-0.41344 -0.47943,-1.63526 -0.91696,-3.2632 -0.1043,-0.38805 -0.29025,-1.06274 -0.41323,-1.4993 -0.3032,-1.07633 -0.76745,-2.75859 -0.99788,-3.61597 -0.35443,-1.31873 -0.67289,-2.44856 -1.66556,-5.90903 -0.34786,-1.21268 -0.74719,-2.64142 -0.88739,-3.175 -0.1402,-0.53358 -0.3256,-1.20827 -0.412,-1.49931 -0.0864,-0.29104 -0.28484,-1.00541 -0.44097,-1.5875 -0.28502,-1.06257 -0.35219,-1.2967 -0.88557,-3.0868 -0.15898,-0.53358 -0.35439,-1.20827 -0.43425,-1.49931 -0.27992,-1.02023 -0.69677,-2.4917 -1.42409,-5.02708 -0.40355,-1.4067 -0.85019,-2.9942 -0.99254,-3.52778 -0.28579,-1.07119 -0.4251,-1.56094 -0.85291,-2.99861 -0.15878,-0.53357 -0.33207,-1.12889 -0.3851,-1.32292 -0.053,-0.19402 -0.29101,-1.02746 -0.52886,-1.85208 -1.393685,-4.83189 -1.337922,-4.75525 -3.695233,-5.07897 -0.860634,-0.11819 -2.676039,-0.29966 -4.034233,-0.40327 -1.358194,-0.10361 -3.263194,-0.25405 -4.233333,-0.33432 -0.970139,-0.0803 -2.914826,-0.23374 -4.321528,-0.34105 -1.406701,-0.10731 -3.311701,-0.27326 -4.233333,-0.36878 -0.921631,-0.0955 -2.826631,-0.26002 -4.233333,-0.36555 -1.406701,-0.10554 -3.391076,-0.26558 -4.409721,-0.35565 -1.018646,-0.0901 -3.320521,-0.27964 -5.115278,-0.42127 -1.794757,-0.14162 -4.771319,-0.38168 -6.614583,-0.53346 -1.843263,-0.15178 -4.383263,-0.34888 -5.644444,-0.43801 -3.464111,-0.24479 -9.088442,-0.68014 -11.465276,-0.88746 -4.575865,-0.39913 -8.613728,-0.65469 -8.972135,-0.56784 -1.002665,0.24295 -1.286777,1.40529 -0.752361,3.07801 0.132812,0.4157 0.377287,1.23207 0.543278,1.81415 0.165991,0.58208 0.369143,1.25677 0.451449,1.49931 0.367472,1.08285 1.05421,3.34236 1.208896,3.97752 0.09333,0.38323 0.57776,2.04616 1.076511,3.69539 0.498751,1.64924 1.180887,3.95111 1.515856,5.11528 0.648587,2.25412 1.42047,4.82995 1.665007,5.55625 0.08166,0.24253 0.283587,0.91722 0.448728,1.4993 0.283785,1.00028 0.957108,3.28665 1.662257,5.64445 0.174083,0.58208 0.442726,1.49489 0.596982,2.02847 0.154257,0.53358 0.449611,1.52576 0.656342,2.20486 0.206732,0.6791 0.486903,1.61175 0.622602,2.07257 0.1357,0.46082 0.371297,1.25457 0.523549,1.76389 0.152252,0.50932 0.344047,1.16417 0.426209,1.45521 0.08216,0.29104 0.463364,1.64041 0.847113,2.99861 1.403918,4.96885 1.884622,5.90773 3.20503,6.2599 0.343577,0.0916 1.934373,0.28806 3.535102,0.43651 1.60073,0.14845 3.704167,0.35093 4.674306,0.44996 0.970138,0.099 2.637013,0.25805 3.704166,0.35337 1.067153,0.0953 2.69434,0.25327 3.615972,0.35099 0.921632,0.0977 2.906007,0.29989 4.409722,0.4493 4.903918,0.48723 7.994967,0.79653 9.701388,0.97074 0.921632,0.0941 2.945694,0.28713 4.497916,0.42897 1.552222,0.14185 3.65566,0.34197 4.674305,0.44472 1.787419,0.18029 3.788822,0.37682 9.789583,0.96134 1.552222,0.1512 3.615972,0.35466 4.586112,0.45213 0.97014,0.0975 3.10358,0.29204 4.74099,0.43235 1.6374,0.14032 3.01985,0.29787 3.0721,0.35013 0.0522,0.0523 0.70519,0.095 1.45097,0.095 1.18911,0 1.4125,-0.0524 1.81555,-0.42593 z m 5.95778,-0.79933 c 0.71887,-0.18882 2.02141,-0.55094 2.89454,-0.80471 0.87312,-0.25377 1.98437,-0.56894 2.46944,-0.70039 0.89649,-0.24294 3.40759,-0.97508 6.35,-1.85141 0.29104,-0.0867 1.12448,-0.31493 1.85208,-0.50721 1.28964,-0.34081 3.06727,-0.84499 4.8507,-1.37578 1.72788,-0.51426 1.95173,-0.57813 2.91041,-0.83034 0.53358,-0.14037 1.52577,-0.42407 2.20486,-0.63044 0.6791,-0.20637 1.67129,-0.49827 2.20487,-0.64867 0.53357,-0.1504 1.16857,-0.3408 1.41111,-0.42312 0.24253,-0.0823 1.05604,-0.29425 1.8078,-0.47096 0.75176,-0.17671 1.3669,-0.36098 1.36699,-0.40948 9e-5,-0.0485 -2.00405,-0.0919 -4.45363,-0.0964 -2.84275,-0.005 -4.83663,-0.0877 -5.51213,-0.22817 l -1.05834,-0.21999 -0.52916,0.64519 c -2.74823,3.3508 -3.24007,3.75344 -5.05562,4.13873 -0.83612,0.17743 -1.19291,0.17774 -1.78691,0.002 -1.37452,-0.40776 -2.2953,-0.92043 -3.21445,-1.78973 l -0.91422,-0.86462 -0.95259,0.19083 c -0.97433,0.19518 -2.31663,0.33792 -6.50885,0.69216 -1.30969,0.11066 -2.47221,0.22963 -2.58339,0.26436 -0.14041,0.0439 -0.0465,0.67304 0.30738,2.06011 0.29249,1.14633 0.51008,2.46654 0.51083,3.09938 7.1e-4,0.60634 0.0283,1.10243 0.0613,1.10243 0.033,0 0.64814,-0.15449 1.36701,-0.34332 z m -1.02045,-9.66013 c 0.37502,-0.0748 0.4639,-0.16758 0.36728,-0.38338 -0.0701,-0.15658 -0.17367,-0.72126 -0.23015,-1.25484 l -0.1027,-0.97014 -1.72476,-0.0505 -1.72476,-0.0505 0.11647,0.49151 c 0.0641,0.27034 0.2239,0.80902 0.35519,1.19707 0.13129,0.38806 0.23987,0.85472 0.24128,1.03702 0.002,0.30213 0.10013,0.32045 1.10499,0.207 0.60634,-0.0685 1.32506,-0.16888 1.59716,-0.22316 z" /><path
       style="display:inline;fill:#000000;fill-opacity:1"
       d="m 140.22622,251.76909 c -0.29105,-0.0766 -1.00542,-0.14999 -1.5875,-0.16312 -1.76658,-0.0399 -8.25634,-0.98026 -9.87778,-1.43134 -0.38806,-0.10795 -1.06274,-0.27527 -1.49931,-0.37182 -0.43656,-0.0966 -0.9525,-0.2419 -1.14652,-0.32299 -0.19403,-0.0811 -0.74966,-0.2824 -1.23473,-0.44733 -2.10893,-0.71709 -3.80552,-1.61136 -5.23459,-2.75915 -0.50408,-0.40487 -0.47175,-0.40768 -2.6147,0.22719 -1.58005,0.4681 -3.82219,0.46111 -8.55486,-0.0267 -0.97014,-0.1 -3.15295,-0.29524 -4.85069,-0.43388 -2.78571,-0.22748 -5.172549,-0.43693 -8.202083,-0.71975 -1.888173,-0.17627 -4.69633,-0.42967 -7.849305,-0.7083 -1.697743,-0.15004 -3.880555,-0.34626 -4.850694,-0.43605 -0.970139,-0.0898 -3.152951,-0.28445 -4.850694,-0.43257 -4.345687,-0.37913 -8.808507,-0.78647 -10.671527,-0.97403 -0.873125,-0.0879 -2.936875,-0.28211 -4.586111,-0.43156 -1.649236,-0.14945 -3.792361,-0.35492 -4.762499,-0.4566 -0.970139,-0.10168 -2.121077,-0.21172 -2.557639,-0.24454 -4.30396,-0.32358 -5.559675,-0.7336 -7.288419,-2.3798 -0.999513,-0.95179 -1.926449,-2.54371 -2.256204,-3.87481 -0.193148,-0.77967 -0.348964,-1.02047 -0.875289,-1.35273 -0.997171,-0.62948 -1.620566,-1.52476 -2.450762,-3.51959 -0.08075,-0.19403 -0.281735,-0.82903 -0.446635,-1.41111 -0.1649,-0.58208 -0.370429,-1.29646 -0.456731,-1.5875 -0.0863,-0.29104 -0.402459,-1.3626 -0.702569,-2.38125 -0.300111,-1.01865 -0.613881,-2.05052 -0.697266,-2.29306 -0.08338,-0.24253 -0.389244,-1.23472 -0.679687,-2.20486 -0.290442,-0.97014 -0.731583,-2.43153 -0.980312,-3.24754 -0.24873,-0.81601 -0.452236,-1.59099 -0.452236,-1.72218 0,-0.1312 -0.0695,-0.37636 -0.154438,-0.54482 -0.14605,-0.28965 -0.402073,-1.11305 -0.972768,-3.12851 -0.137351,-0.48507 -0.455856,-1.56132 -0.707789,-2.39168 -0.251933,-0.83035 -0.45806,-1.63926 -0.45806,-1.79757 0,-0.15832 -0.07937,-0.3369 -0.176389,-0.39686 -0.09701,-0.06 -0.176389,-0.26141 -0.176389,-0.44767 0,-0.18626 -0.189683,-0.91579 -0.421519,-1.62119 -0.48843,-1.48612 -1.058986,-3.4084 -1.349223,-4.54572 -0.111408,-0.43657 -0.264412,-0.91542 -0.340008,-1.06413 -0.0756,-0.1487 -0.193656,-0.54558 -0.262355,-0.88194 -0.0687,-0.33637 -0.269406,-1.04814 -0.446014,-1.58171 -0.176608,-0.53358 -0.455565,-1.44639 -0.619905,-2.02847 -0.16434,-0.58209 -0.522996,-1.8124 -0.797013,-2.73403 -0.274017,-0.92163 -0.537016,-1.83445 -0.584443,-2.02847 -0.04743,-0.19403 -0.299044,-1.02747 -0.559148,-1.85209 -1.405261,-4.45514 -1.667285,-5.60287 -1.671775,-7.32275 -0.0059,-2.24152 0.517439,-3.18889 2.465292,-4.46315 0.940389,-0.6152 1.02964,-0.6367 2.910417,-0.70128 1.728069,-0.0593 4.448935,0.0735 10.054166,0.49079 0.970139,0.0722 3.073576,0.22319 4.674305,0.33547 1.600729,0.11228 3.545416,0.27936 4.321527,0.3713 0.776111,0.0919 3.038299,0.28873 5.027083,0.43731 1.988785,0.14859 4.052535,0.30631 4.586111,0.35048 1.673254,0.13853 7.935137,0.63023 10.054166,0.78948 1.115659,0.0838 3.060347,0.23831 4.321527,0.34325 2.650014,0.22051 3.005076,0.24947 7.849305,0.64004 1.988785,0.16036 4.44941,0.36517 5.468055,0.45514 3.468461,0.30636 5.115266,0.37874 5.123023,0.22517 0.07479,-1.48048 1.011571,-5.99419 1.624272,-7.82625 0.146002,-0.43656 0.398588,-1.23031 0.561304,-1.76388 0.900938,-2.95436 3.420775,-8.51299 4.975715,-10.97617 0.22863,-0.36217 0.41568,-0.7017 0.41568,-0.75451 0,-0.0528 0.31827,-0.59997 0.70727,-1.2159 1.14451,-1.8122 2.49482,-4.38153 3.254,-6.19162 0.16276,-0.38805 0.36566,-0.8643 0.45089,-1.05833 0.0852,-0.19403 0.2874,-0.82903 0.44926,-1.41111 0.16187,-0.58208 0.36693,-1.24581 0.45569,-1.47495 0.22908,-0.5914 0.0358,-0.75759 -2.11237,-1.81637 -2.67998,-1.32089 -3.30349,-1.9936 -4.06116,-4.3816 -0.65929,-2.07791 -0.77469,-2.46476 -1.18394,-3.96875 -0.15839,-0.58208 -0.35264,-1.21708 -0.43167,-1.41111 -0.079,-0.19403 -0.22218,-0.67028 -0.31812,-1.05833 -0.09594,-0.38806 -0.340838,-1.33341 -0.544222,-2.10079 -0.449032,-1.69421 -0.467544,-2.8418 -0.06687,-4.14552 0.45634,-1.48485 2.236782,-3.20281 4.459582,-4.30308 0.92163,-0.4562 1.77599,-0.82906 1.89857,-0.82857 0.12259,4.8e-4 0.36071,-0.072 0.52917,-0.16102 0.42953,-0.22703 3.09928,-1.05691 4.07747,-1.26745 0.44821,-0.0965 1.13243,-0.25601 1.52048,-0.35454 1.0279,-0.26097 4.38985,-0.89308 7.49651,-1.40948 2.0502,-0.34079 6.92081,-0.92779 9.43681,-1.13732 7.22246,-0.60148 11.45982,-0.76074 20.19653,-0.7591 8.16804,0.001 15.20785,0.2694 20.02013,0.76178 5.12697,0.52457 8.33099,0.94517 12.08264,1.58614 0.92163,0.15746 2.09647,0.35625 2.61074,0.44175 1.07946,0.17947 2.57186,0.51582 3.21009,0.72347 0.24254,0.0789 0.71879,0.19275 1.05834,0.25297 0.33955,0.0602 0.77611,0.17548 0.97014,0.25613 0.19402,0.0806 0.86871,0.28789 1.4993,0.46052 0.63059,0.17263 1.22193,0.37984 1.3141,0.46045 0.0922,0.0806 0.2786,0.14657 0.41431,0.14657 0.84112,0 4.56819,2.0424 5.73914,3.14499 0.86593,0.81538 1.52828,2.48248 1.52828,3.84659 0,0.652 -0.0768,1.42922 -0.17063,1.72715 -0.0939,0.29793 -0.30043,1.01794 -0.45907,1.60002 -0.15864,0.58209 -0.35376,1.25678 -0.43361,1.49931 -0.0798,0.24254 -0.31729,1.03629 -0.52768,1.76389 -1.43614,4.96681 -1.78371,5.78005 -2.9544,6.91265 -0.89604,0.86689 -1.89683,1.46794 -3.30391,1.98424 -1.29226,0.47417 -1.47969,0.68784 -1.37278,1.56498 0.15348,1.25915 1.00027,3.64572 1.95196,5.50132 0.24878,0.48507 0.51346,1.00101 0.58817,1.14653 0.0747,0.14552 1.0965,1.83625 2.27062,3.75717 1.99208,3.25912 4.01782,6.98374 4.57603,8.41366 0.13255,0.33955 0.34455,0.85549 0.4711,1.14653 1.67297,3.84735 2.78707,7.99589 3.43428,12.78819 0.39272,2.90785 0.20285,9.8372 -0.35522,12.96459 -0.0866,0.48507 -0.27446,1.55663 -0.41755,2.38125 -0.29628,1.70733 -0.94592,4.36505 -1.1658,4.76928 -0.0812,0.14925 -0.20693,0.62245 -0.27942,1.05155 -0.0725,0.4291 -0.19478,0.9023 -0.27174,1.05155 -0.077,0.14925 -0.27317,0.74762 -0.43604,1.3297 -0.50092,1.79033 -2.58373,7.9275 -2.75066,8.10507 -0.0866,0.0922 -0.15754,0.2786 -0.15754,0.41431 0,0.13571 -0.10981,0.49687 -0.24404,0.80257 -0.13422,0.3057 -0.70159,1.66708 -1.26082,3.02527 -0.55924,1.35819 -1.08442,2.54485 -1.16707,2.63701 -0.0827,0.0922 -0.15029,0.26772 -0.15029,0.39013 0,0.1224 -0.36519,0.99949 -0.81154,1.94909 -0.44635,0.9496 -1.00976,2.16311 -1.25202,2.69669 -1.20102,2.64521 -5.99073,12.09889 -6.38196,12.59638 -0.083,0.10549 -0.53215,0.90618 -0.99819,1.77931 -0.46605,0.87312 -1.23062,2.20894 -1.69905,2.96848 -0.46842,0.75955 -0.85168,1.41086 -0.85168,1.44738 0,0.12705 -1.35615,2.00136 -1.87866,2.59647 -0.90188,1.02717 -2.94093,2.28665 -4.64773,2.87079 -0.53358,0.18262 -1.04951,0.38586 -1.14653,0.45165 -0.097,0.0658 -0.4542,0.17311 -0.79375,0.23847 -0.33955,0.0654 -0.77611,0.19083 -0.97014,0.27884 -0.19402,0.088 -0.74965,0.23842 -1.23472,0.33426 -0.48507,0.0958 -1.23913,0.2626 -1.67569,0.37056 -1.07809,0.26663 -3.66909,0.67508 -7.32014,1.15396 -0.29104,0.0382 -1.56104,0.16155 -2.82222,0.27418 -2.64156,0.2359 -19.316,0.369 -20.10833,0.16052 z m 18.42473,-4.14566 c 4.60001,-0.3476 7.15963,-0.69266 10.67943,-1.4397 1.77204,-0.3761 4.04212,-0.99331 4.7625,-1.29488 1.56863,-0.65666 2.83003,-1.29351 3.3547,-1.69369 0.72106,-0.54999 2.06828,-2.66293 3.71387,-5.82475 1.08299,-2.08086 1.27757,-2.66662 0.7409,-2.23047 -0.22628,0.1839 -2.26633,0.90184 -3.57614,1.25853 -1.3268,0.36131 -3.87951,0.69951 -6.2144,0.8233 -2.01102,0.10663 -2.3953,0.0835 -2.77812,-0.16735 -0.56733,-0.37173 -0.62658,-1.47443 -0.10461,-1.9468 0.38016,-0.34405 2.0641,-0.61065 3.98186,-0.63041 1.09397,-0.0113 2.74287,-0.29893 4.93888,-0.86161 1.95052,-0.49978 5.75367,-2.33769 6.61565,-3.19709 0.38754,-0.38637 1.20308,-1.7898 2.16263,-3.72159 0.84726,-1.70572 1.54047,-3.15101 1.54047,-3.21175 0,-0.0853 0.90593,-2.06503 1.18933,-2.59908 0.0288,-0.0542 -0.64378,0.13701 -1.49455,0.42492 -1.53174,0.51835 -1.59858,0.52474 -6.83853,0.65411 -2.91041,0.0719 -5.7084,0.21321 -6.21775,0.31411 -1.20967,0.23965 -3.74295,1.0319 -4.58408,1.43361 -2.06205,0.98479 -2.41567,1.10035 -3.09033,1.00986 -1.13622,-0.1524 -1.55929,-1.13252 -0.79221,-1.83532 0.49314,-0.45182 1.38919,-0.90473 3.41121,-1.72422 0.86448,-0.35036 1.73053,-0.70913 1.92455,-0.79728 0.19403,-0.0881 0.70997,-0.25273 1.14653,-0.36575 2.57593,-0.66685 3.1623,-0.72514 7.76111,-0.77158 5.31792,-0.0537 5.79523,-0.13159 8.46667,-1.38179 1.60304,-0.7502 2.40402,-1.42594 2.82943,-2.38702 1.16859,-2.64008 3.70742,-9.36312 3.99937,-10.59063 0.0961,-0.40398 0.0859,-0.40826 -0.32687,-0.13779 -0.94803,0.62118 -5.73771,1.94048 -6.69881,1.84517 -0.36252,-0.0359 -0.68699,-0.22392 -0.91417,-0.52957 -0.30225,-0.40668 -0.32242,-0.54567 -0.14225,-0.98062 0.22801,-0.55048 1.01294,-1.10318 1.56668,-1.10318 0.52721,0 2.94462,-0.8258 4.10991,-1.40396 1.32261,-0.65621 3.37464,-2.2903 3.8201,-3.04204 0.30482,-0.5144 0.47945,-1.1956 1.12113,-4.37345 0.15355,-0.76042 0.40946,-2.77393 0.6388,-5.02621 l 0.10768,-1.05746 -0.68689,0.6031 c -1.87728,1.64827 -7.27645,3.35658 -7.84433,2.48196 -0.74703,-1.15053 -0.31577,-1.87336 1.41883,-2.37807 2.49557,-0.72614 4.41863,-1.82025 5.94216,-3.38075 0.51331,-0.52576 0.987,-1.16994 1.05265,-1.43151 0.12224,-0.48702 -0.36453,-5.63306 -0.63795,-6.74439 -0.0835,-0.33955 -0.28799,-1.21267 -0.45433,-1.94028 -0.33218,-1.45305 -0.73678,-2.89177 -0.96728,-3.43958 -0.0816,-0.19403 -0.43697,-1.14257 -0.78963,-2.10787 -0.35265,-0.9653 -0.79768,-2.0986 -0.98894,-2.51844 l -0.34774,-0.76335 -0.9194,0.75455 c -0.50567,0.415 -0.95909,0.79685 -1.0076,0.84854 -0.2064,0.21994 -1.91487,1.22501 -2.64583,1.5565 -0.43656,0.19799 -1.54781,0.60833 -2.46944,0.91189 -0.92164,0.30355 -1.92582,0.66479 -2.23152,0.80276 -0.30571,0.13796 -0.60753,0.25084 -0.67071,0.25084 -0.43704,0 -3.4237,2.2785 -4.77404,3.64208 -1.40392,1.41767 -1.7153,1.64958 -2.21486,1.64958 -0.69899,0 -1.39776,-0.59029 -1.39776,-1.18078 0,-1.2732 3.5697,-4.58007 6.70277,-6.20927 1.18633,-0.61689 2.00032,-0.9266 5.02709,-1.91275 0.48507,-0.15804 1.32735,-0.54786 1.87174,-0.86626 1.03485,-0.60526 2.86928,-2.43667 3.06807,-3.06302 0.14477,-0.45613 -0.50217,-1.72751 -2.55765,-5.02626 -2.33118,-3.74121 -3.57583,-6.30918 -4.60533,-9.50179 -0.18396,-0.57047 -0.33447,-1.15519 -0.33447,-1.29939 0,-0.18694 -0.1139,-0.23056 -0.39688,-0.15201 -0.21828,0.0606 -1.11125,0.2724 -1.98437,0.47067 -0.87313,0.19828 -1.87452,0.43577 -2.22533,0.52777 -1.28948,0.33815 -2.27626,0.0982 -2.92844,-0.71226 -0.40769,-0.50661 -0.27083,-1.51805 0.27995,-2.06883 0.52955,-0.52954 1.01374,-0.72548 3.19812,-1.29416 1.88939,-0.49188 2.53281,-0.68211 4.32153,-1.27767 1.7463,-0.58144 5.11046,-2.11529 5.60675,-2.55635 0.37051,-0.32927 0.92124,-1.51704 1.09245,-2.35612 0.0664,-0.32541 0.19139,-0.82978 0.27775,-1.12082 0.39633,-1.33561 0.67321,-2.33185 0.76955,-2.76888 l 0.10489,-0.47582 -0.92708,0.40434 c -2.85868,1.2468 -7.77898,2.57742 -13.09792,3.54214 -0.87312,0.15837 -1.98437,0.36003 -2.46944,0.44815 -0.48507,0.0881 -1.79476,0.27709 -2.91042,0.41994 -1.11566,0.14284 -2.70316,0.34637 -3.52778,0.45229 -7.7355,0.99356 -23.37679,1.36401 -33.51388,0.79375 -8.4087,-0.47304 -15.39263,-1.25523 -20.54931,-2.30152 -0.7761,-0.15747 -1.76828,-0.35762 -2.20485,-0.44479 -3.26647,-0.65217 -7.84837,-2.00205 -9.60222,-2.82893 -0.38202,-0.18011 -0.7282,-0.32748 -0.76928,-0.32748 -0.0957,0 0.10947,1.18766 0.30465,1.76389 0.0821,0.24254 0.28613,0.95691 0.45329,1.5875 0.16715,0.63059 0.36652,1.30528 0.44303,1.49931 0.0765,0.19403 0.23563,0.60956 0.3536,0.92341 0.84978,2.26065 11.0402,5.20494 23.10442,6.67548 1.21267,0.14782 2.73436,0.33412 3.38152,0.41402 1.38941,0.17152 2.15187,0.64113 2.4353,1.49993 0.24314,0.73673 -0.10295,1.72027 -0.7219,2.05152 -1.31693,0.70481 -15.3613,-1.23962 -20.51851,-2.84076 -1.41165,-0.43827 -1.56315,-0.36027 -1.77874,0.91585 -0.29649,1.75491 -1.62118,4.64777 -4.47079,9.76332 -2.65255,4.76181 -3.17456,5.73198 -3.89126,7.23195 -1.04878,2.19497 -1.4231,3.05139 -1.4231,3.25591 0,0.10365 -0.0744,0.32629 -0.16543,0.49475 -0.21001,0.38881 -0.98474,2.55494 -1.24512,3.48128 -0.56532,2.01127 -1.205938,4.68775 -1.308788,5.46806 -0.06394,0.48507 -0.158265,1.09581 -0.209621,1.3572 -0.08419,0.42849 -0.0098,0.51284 0.756329,0.85724 2.19799,0.98808 2.74001,1.84329 3.85076,6.07583 0.22914,0.87313 0.54595,2.02407 0.70402,2.55764 0.15808,0.53358 0.32923,1.12889 0.38033,1.32292 0.0511,0.19403 0.19478,0.70996 0.31927,1.14653 0.1245,0.43656 0.32367,1.15093 0.44262,1.5875 0.11895,0.43656 0.3179,1.11125 0.44211,1.4993 0.12421,0.38806 0.36358,1.18181 0.53193,1.76389 0.16835,0.58208 0.48626,1.65365 0.70648,2.38125 0.22021,0.72761 0.53268,1.79917 0.69438,2.38125 0.1617,0.58208 0.46066,1.61396 0.66436,2.29306 0.20371,0.67909 0.42898,1.47284 0.50062,1.76388 0.0716,0.29105 0.4154,1.52136 0.76394,2.73403 0.91888,3.19713 1.22579,4.28321 1.66983,5.90903 1.29714,4.74937 1.36406,4.93999 1.71292,4.87911 0.18839,-0.0329 1.30108,-0.0587 2.47263,-0.0573 l 2.13009,0.002 0.22876,-0.64826 c 1.42027,-4.02466 4.79649,-7.48141 8.13201,-8.32596 2.90708,-0.73607 6.2267,-0.57414 9.29067,0.4532 0.58272,0.19538 0.9477,0.20925 1.67569,0.0637 0.5119,-0.10235 1.68478,-0.29507 2.60641,-0.42826 5.20049,-0.75156 8.12056,-1.75289 10.93084,-3.74834 1.65596,-1.17582 4.53259,-4.03196 6.1474,-6.10362 1.45812,-1.87063 3.03009,-4.07454 3.03009,-4.24818 0,-0.056 0.18606,-0.3979 0.41347,-0.75977 0.22741,-0.36188 0.95688,-1.71579 1.62104,-3.00869 0.66417,-1.2929 1.40162,-2.50337 1.63879,-2.68993 0.66155,-0.52037 1.64206,-0.44698 2.30527,0.17255 0.84549,0.7898 0.76842,1.62247 -0.353,3.81358 -1.84705,3.6089 -3.84292,6.6648 -6.1793,9.46118 -4.26728,5.10748 -7.58781,7.68575 -12.23446,9.49959 -0.55147,0.21527 -2.49227,0.65529 -4.23333,0.95978 -2.11222,0.3694 -3.08604,0.55872 -4.70587,0.91489 -1.27717,0.28083 -1.43323,0.28033 -2.73403,-0.009 -0.75875,-0.16862 -1.55368,-0.37651 -1.76651,-0.46197 -0.21284,-0.0855 -1.2298,-0.25336 -2.25991,-0.3731 -2.14887,-0.24979 -3.39222,-0.081 -4.99857,0.67863 -1.73737,0.82159 -3.78435,3.36422 -4.59879,5.71237 -0.42628,1.22902 -0.6275,3.27227 -0.38491,3.90838 0.16047,0.42077 0.28136,0.48507 0.91187,0.48507 1.90761,0 3.32822,-0.82558 4.12942,-2.39981 0.70075,-1.37684 1.85314,-3.05876 2.29342,-3.34724 0.70695,-0.46321 1.82162,-0.24245 2.42812,0.4809 0.6756,0.80576 0.62392,1.42073 -0.24269,2.8877 -1.26929,2.14861 -1.61689,3.06279 -1.38105,3.63216 0.40686,0.98224 1.83504,1.38089 2.61762,0.73066 0.20434,-0.16977 1.02853,-1.22149 1.83154,-2.33715 0.99969,-1.38891 1.66681,-2.1397 2.11587,-2.38125 l 0.65585,-0.35278 0.83392,0.44098 c 0.79515,0.42046 0.97362,0.44097 3.83806,0.44097 1.90956,0 3.32548,-0.0842 3.88608,-0.23099 2.55912,-0.67024 3.18612,-0.85277 5.33532,-1.55316 5.67662,-1.84993 9.81434,-4.07781 14.34465,-7.72361 1.62338,-1.30643 4.66942,-4.27803 6.27684,-6.12344 1.10418,-1.26767 4.59778,-6.15293 4.84158,-6.77019 0.0383,-0.097 0.42658,-0.81139 0.86282,-1.5875 0.43623,-0.77611 1.34904,-2.52236 2.02847,-3.88055 1.20467,-2.40817 1.25366,-2.47525 1.97423,-2.70331 0.63913,-0.20228 0.81881,-0.19594 1.33066,0.0469 1.0765,0.51083 1.41517,1.62861 0.82982,2.73876 -0.0784,0.14871 -0.76934,1.54037 -1.5354,3.0926 -2.87734,5.83017 -6.28717,10.58687 -10.87991,15.17743 -4.85507,4.85278 -9.45118,7.93056 -15.39819,10.3114 -1.5991,0.64018 -2.28661,0.99638 -2.17876,1.1288 0.68662,0.84307 0.94902,4.45405 0.46007,6.33124 -0.57055,2.19051 -1.91279,4.12966 -3.66173,5.29014 -0.82863,0.54982 -2.43316,1.19443 -4.1895,1.68309 -0.33954,0.0945 -1.84767,0.53756 -3.35138,0.98464 -4.57103,1.35905 -4.43137,1.31921 -7.49653,2.13884 -0.48507,0.12971 -1.31851,0.36537 -1.85208,0.52368 -1.39256,0.41319 -1.82992,0.53487 -3.70417,1.03059 -3.70732,0.98056 -5.11528,1.39925 -5.11528,1.52114 0,0.18039 2.38022,1.04086 4.18341,1.51236 3.19111,0.83439 5.22533,1.159 10.36867,1.6546 4.40773,0.42471 14.70099,0.47969 19.65946,0.105 z m -33.2414,-42.87941 c -4.03131,-0.54362 -8.09536,-1.53077 -8.51485,-2.06824 -0.31843,-0.40799 -0.37177,-1.06387 -0.12527,-1.54054 0.40261,-0.77857 1.12411,-0.89384 2.6429,-0.42222 3.73745,1.16056 9.33272,1.61555 12.83419,1.04363 1.65687,-0.27063 1.99356,-0.3482 5.62734,-1.29643 1.13155,-0.29527 2.75874,-0.63081 3.61597,-0.74564 1.67655,-0.22457 5.21012,-0.12538 7.02666,0.19726 2.17426,0.38616 4.43481,0.68896 5.20348,0.69699 0.89856,0.009 1.09543,0.10326 1.39005,0.66276 0.29047,0.55161 -0.16184,1.3815 -0.96055,1.76238 -0.63834,0.3044 -1.43866,0.24232 -6.51492,-0.50538 -0.6791,-0.10002 -2.38566,-0.14572 -3.79236,-0.10155 -2.5845,0.0812 -2.84121,0.12734 -6.70278,1.20587 -3.42171,0.95567 -4.15425,1.06172 -7.76111,1.12353 -1.89177,0.0324 -3.67771,0.0268 -3.96875,-0.0124 z m 9.525,-17.44545 c -3.32584,-0.59899 -6.15974,-2.06104 -8.08615,-4.17176 -2.30719,-2.52793 -2.55535,-4.40639 -0.68573,-5.19064 0.59008,-0.24753 0.71609,-0.24843 1.22083,-0.009 0.32354,0.15364 0.81709,0.66473 1.16086,1.20212 1.36601,2.13543 3.73073,3.58092 6.83116,4.17571 2.004,0.38444 3.06881,0.41105 4.7625,0.11898 2.37583,-0.40969 4.14869,-1.30215 5.94667,-2.99357 0.76933,-0.72373 1.60464,-1.36754 1.85625,-1.43069 1.00177,-0.25143 2.42764,0.92119 2.42764,1.99646 0,1.65747 -3.47022,4.52671 -6.87917,5.68781 -2.50717,0.85395 -5.87968,1.09613 -8.55486,0.61433 z m 13.31736,-13.97422 c -0.46555,-0.16829 -1.60617,-1.35407 -1.95782,-2.03534 -0.39513,-0.76549 -0.86439,-3.04125 -0.86423,-4.19117 1.7e-4,-1.14824 0.45013,-3.12561 0.94326,-4.14514 0.77565,-1.60363 1.86171,-2.38125 3.32576,-2.38125 1.25814,0 2.15782,0.5831 2.9937,1.94028 1.16955,1.89893 1.14895,6.29816 -0.0405,8.65509 -0.36408,0.7214 -1.56282,1.86417 -2.21597,2.1125 -0.47023,0.17878 -1.74163,0.20499 -2.18416,0.045 z m -23.94122,-1.10488 c -2.41991,-1.09851 -3.39706,-5.84853 -1.97776,-9.61408 0.52964,-1.40517 1.87083,-2.77025 3.00151,-3.05496 2.73613,-0.68896 4.6459,1.86491 4.65466,6.22449 0.003,1.69739 -0.0585,2.11045 -0.49493,3.29961 -1.06834,2.91127 -3.04984,4.11349 -5.18348,3.14494 z m -7.07844,70.11857 c 0.908,-0.23685 2.6431,-0.72152 3.85577,-1.07706 1.21268,-0.35554 2.44299,-0.70753 2.73403,-0.78221 0.68463,-0.17567 6.88789,-1.99052 8.37847,-2.45123 1.08464,-0.33524 5.10403,-1.51188 8.20209,-2.40107 6.96839,-2.00004 7.38262,-2.15352 8.24326,-3.05413 0.60204,-0.63001 1.10729,-1.41465 0.98734,-1.53333 -0.0321,-0.0318 -1.48713,0.36562 -3.23338,0.8831 -1.74625,0.51747 -4.80219,1.38966 -6.79097,1.9382 -1.98879,0.54853 -3.81441,1.0644 -4.05695,1.14637 -0.24253,0.082 -0.87753,0.2721 -1.41111,0.4225 -0.53358,0.1504 -1.52576,0.44211 -2.20486,0.64825 -0.6791,0.20614 -2.10785,0.6112 -3.175,0.90014 -3.99858,1.08264 -5.02412,1.37086 -8.37847,2.35473 -1.89177,0.55489 -3.9952,1.16882 -4.6743,1.36431 -1.47934,0.42585 -4.14767,0.4931 -7.05555,0.17782 -1.06715,-0.1157 -2.77371,-0.29118 -3.79236,-0.38994 -1.01864,-0.0988 -2.56646,-0.25914 -3.43958,-0.35641 -1.451264,-0.16167 -4.362405,-0.45591 -8.731251,-0.88251 -0.921631,-0.09 -2.271006,-0.20961 -2.99861,-0.26581 -0.727605,-0.0562 -1.957917,-0.17744 -2.734028,-0.26941 -1.661462,-0.19688 -5.626951,-0.59724 -8.731249,-0.8815 -1.212674,-0.11105 -2.958924,-0.27849 -3.880556,-0.3721 -0.921631,-0.0936 -2.429756,-0.24476 -3.351388,-0.3359 -0.921632,-0.0911 -2.906007,-0.2886 -4.409722,-0.43881 -1.503715,-0.1502 -3.607153,-0.35165 -4.674305,-0.44764 -1.067153,-0.096 -3.17059,-0.29512 -4.674305,-0.44249 -1.503716,-0.14737 -3.289653,-0.30684 -3.96875,-0.35438 -0.679097,-0.0475 -1.651441,-0.11831 -2.160764,-0.15727 -1.219222,-0.0933 -1.219222,0.20131 0,1.11669 1.130452,0.84873 1.776896,1.02989 4.470874,1.25288 2.13429,0.17667 5.829588,0.50887 10.919056,0.98161 1.552222,0.14417 3.774721,0.33753 4.938888,0.42968 1.927663,0.15259 6.301452,0.54618 8.731249,0.78571 0.533577,0.0526 2.359202,0.21701 4.056944,0.36535 1.697743,0.14835 3.801181,0.34803 4.674306,0.44375 0.873125,0.0957 3.016249,0.29353 4.762499,0.43959 6.428432,0.53766 10.688672,0.92797 15.169442,1.38975 3.88383,0.40026 6.47861,0.3548 8.40324,-0.14723 z M 79.074413,239.1204 c 0.127331,-0.051 0.279466,-0.0447 0.338079,0.0139 0.05861,0.0586 -0.04557,0.1003 -0.231511,0.0926 -0.205483,-0.008 -0.247279,-0.0503 -0.106568,-0.10656 z m 33.425877,-2.42211 c 0.25277,-0.23427 0.50911,-0.62323 0.56963,-0.86436 0.12478,-0.49719 -0.45729,-2.95146 -1.32552,-5.58887 -0.1361,-0.41344 -0.47943,-1.63526 -0.91696,-3.2632 -0.1043,-0.38805 -0.29025,-1.06274 -0.41323,-1.4993 -0.3032,-1.07633 -0.76745,-2.75859 -0.99788,-3.61597 -0.35443,-1.31873 -0.67289,-2.44856 -1.66556,-5.90903 -0.34786,-1.21268 -0.74719,-2.64142 -0.88739,-3.175 -0.1402,-0.53358 -0.3256,-1.20827 -0.412,-1.49931 -0.0864,-0.29104 -0.28484,-1.00541 -0.44097,-1.5875 -0.28502,-1.06257 -0.35219,-1.2967 -0.88557,-3.0868 -0.15898,-0.53358 -0.35439,-1.20827 -0.43425,-1.49931 -0.27992,-1.02023 -0.69677,-2.4917 -1.42409,-5.02708 -0.40355,-1.4067 -0.85019,-2.9942 -0.99254,-3.52778 -0.28579,-1.07119 -0.4251,-1.56094 -0.85291,-2.99861 -0.15878,-0.53357 -0.33207,-1.12889 -0.3851,-1.32292 -0.053,-0.19402 -0.29101,-1.02746 -0.52886,-1.85208 -1.393685,-4.83189 -1.337922,-4.75525 -3.695233,-5.07897 -0.860634,-0.11819 -2.676039,-0.29966 -4.034233,-0.40327 -1.358194,-0.10361 -3.263194,-0.25405 -4.233333,-0.33432 -0.970139,-0.0803 -2.914826,-0.23374 -4.321528,-0.34105 -1.406701,-0.10731 -3.311701,-0.27326 -4.233333,-0.36878 -0.921631,-0.0955 -2.826631,-0.26002 -4.233333,-0.36555 -1.406701,-0.10554 -3.391076,-0.26558 -4.409721,-0.35565 -1.018646,-0.0901 -3.320521,-0.27964 -5.115278,-0.42127 -1.794757,-0.14162 -4.771319,-0.38168 -6.614583,-0.53346 -1.843263,-0.15178 -4.383263,-0.34888 -5.644444,-0.43801 -3.464111,-0.24479 -9.088442,-0.68014 -11.465276,-0.88746 -4.575865,-0.39913 -8.613728,-0.65469 -8.972135,-0.56784 -1.002665,0.24295 -1.286777,1.40529 -0.752361,3.07801 0.132812,0.4157 0.377287,1.23207 0.543278,1.81415 0.165991,0.58208 0.369143,1.25677 0.451449,1.49931 0.367472,1.08285 1.05421,3.34236 1.208896,3.97752 0.09333,0.38323 0.57776,2.04616 1.076511,3.69539 0.498751,1.64924 1.180887,3.95111 1.515856,5.11528 0.648587,2.25412 1.42047,4.82995 1.665007,5.55625 0.08166,0.24253 0.283587,0.91722 0.448728,1.4993 0.283785,1.00028 0.957108,3.28665 1.662257,5.64445 0.174083,0.58208 0.442726,1.49489 0.596982,2.02847 0.154257,0.53358 0.449611,1.52576 0.656342,2.20486 0.206732,0.6791 0.486903,1.61175 0.622602,2.07257 0.1357,0.46082 0.371297,1.25457 0.523549,1.76389 0.152252,0.50932 0.344047,1.16417 0.426209,1.45521 0.08216,0.29104 0.463364,1.64041 0.847113,2.99861 1.403918,4.96885 1.884622,5.90773 3.20503,6.2599 0.343577,0.0916 1.934373,0.28806 3.535102,0.43651 1.60073,0.14845 3.704167,0.35093 4.674306,0.44996 0.970138,0.099 2.637013,0.25805 3.704166,0.35337 1.067153,0.0953 2.69434,0.25327 3.615972,0.35099 0.921632,0.0977 2.906007,0.29989 4.409722,0.4493 4.903918,0.48723 7.994967,0.79653 9.701388,0.97074 0.921632,0.0941 2.945694,0.28713 4.497916,0.42897 1.552222,0.14185 3.65566,0.34197 4.674305,0.44472 1.787419,0.18029 3.788822,0.37682 9.789583,0.96134 1.552222,0.1512 3.615972,0.35466 4.586112,0.45213 0.97014,0.0975 3.10358,0.29204 4.74099,0.43235 1.6374,0.14032 3.01985,0.29787 3.0721,0.35013 0.0522,0.0523 0.70519,0.095 1.45097,0.095 1.18911,0 1.4125,-0.0524 1.81555,-0.42593 z M 69.789853,219.10918 c -0.890471,-0.8706 -0.894106,-0.94657 -0.298512,-6.23843 0.152864,-1.35819 0.354117,-3.26319 0.447229,-4.23333 0.09311,-0.97014 0.210296,-2.00514 0.260408,-2.3 0.05011,-0.29487 0.167504,-1.28705 0.260874,-2.20486 0.518129,-5.09315 0.589308,-5.36509 1.514658,-5.7867 0.972374,-0.44305 2.174539,-0.003 2.633643,0.96488 0.26839,0.56559 0.269241,0.8155 0.01122,3.29366 -0.153566,1.4749 -0.356201,3.27694 -0.4503,4.00455 -0.159102,1.23022 -0.438975,3.70556 -0.877506,7.76111 -0.433997,4.01362 -0.494411,4.28613 -1.065619,4.8066 -0.762916,0.69514 -1.682099,0.66968 -2.436091,-0.0675 z m 9.582216,-1.37809 c -1.041909,-0.42645 -1.480276,-2.01155 -0.796086,-2.87858 0.211665,-0.26824 1.568781,-1.33403 3.015813,-2.36843 1.447032,-1.0344 2.630967,-1.92694 2.630967,-1.98342 0,-0.0565 -0.178593,-0.21346 -0.396875,-0.34886 -1.056265,-0.65517 -5.820647,-4.3366 -6.146298,-4.74922 -0.290082,-0.36756 -0.351734,-0.63638 -0.284327,-1.23974 0.122551,-1.09696 0.735393,-1.67081 1.767677,-1.65521 0.70935,0.0107 1.037525,0.19403 3.407456,1.90327 3.911572,2.82109 6.126749,4.51829 6.635353,5.08381 0.202876,0.22557 0.308681,0.63163 0.308681,1.18464 0,1.07116 -0.384991,1.54537 -2.331709,2.87202 -0.803359,0.54748 -1.778152,1.21874 -2.166208,1.49168 -4.156193,2.92333 -4.578356,3.12438 -5.644444,2.68804 z m -15.653477,-2.12608 c -0.266219,-0.08 -1.218718,-0.73256 -2.116666,-1.45 -0.897948,-0.71744 -2.652999,-2.0856 -3.900113,-3.04034 -2.504733,-1.91752 -3.00073,-2.51008 -2.864293,-3.42195 0.141634,-0.94659 0.480587,-1.29978 2.962331,-3.08677 1.290207,-0.92903 3.020518,-2.18794 3.845136,-2.79758 1.356124,-1.00259 1.581166,-1.10845 2.356486,-1.10845 0.762091,0 0.913738,0.0677 1.367014,0.6107 0.554654,0.66439 0.658414,1.42785 0.300742,2.21286 -0.224096,0.49184 -1.692582,1.61704 -3.878597,2.97191 -0.744514,0.46144 -1.447272,0.95178 -1.561685,1.08964 -0.254365,0.30649 -0.04688,0.49267 3.840179,3.44589 1.742966,1.32423 2.161972,1.84925 2.161972,2.709 0,0.60539 -0.108991,0.88589 -0.511741,1.31704 -0.281458,0.3013 -0.632153,0.54782 -0.779323,0.54782 -0.147171,0 -0.373293,0.0328 -0.502495,0.0729 -0.129202,0.0401 -0.452728,0.007 -0.718947,-0.0727 z m 54.739478,20.29395 c 0.71887,-0.18882 2.02141,-0.55094 2.89454,-0.80471 0.87312,-0.25377 1.98437,-0.56894 2.46944,-0.70039 0.89649,-0.24294 3.40759,-0.97508 6.35,-1.85141 0.29104,-0.0867 1.12448,-0.31493 1.85208,-0.50721 1.28964,-0.34081 3.06727,-0.84499 4.8507,-1.37578 1.72788,-0.51426 1.95173,-0.57813 2.91041,-0.83034 0.53358,-0.14037 1.52577,-0.42407 2.20486,-0.63044 0.6791,-0.20637 1.67129,-0.49827 2.20487,-0.64867 0.53357,-0.1504 1.16857,-0.3408 1.41111,-0.42312 0.24253,-0.0823 1.05604,-0.29425 1.8078,-0.47096 0.75176,-0.17671 1.3669,-0.36098 1.36699,-0.40948 9e-5,-0.0485 -2.00405,-0.0919 -4.45363,-0.0964 -2.84275,-0.005 -4.83663,-0.0877 -5.51213,-0.22817 l -1.05834,-0.21999 -0.52916,0.64519 c -2.74823,3.3508 -3.24007,3.75344 -5.05562,4.13873 -0.83612,0.17743 -1.19291,0.17774 -1.78691,0.002 -1.37452,-0.40776 -2.2953,-0.92043 -3.21445,-1.78973 l -0.91422,-0.86462 -0.95259,0.19083 c -0.97433,0.19518 -2.31663,0.33792 -6.50885,0.69216 -1.30969,0.11066 -2.47221,0.22963 -2.58339,0.26436 -0.14041,0.0439 -0.0465,0.67304 0.30738,2.06011 0.29249,1.14633 0.51008,2.46654 0.51083,3.09938 7.1e-4,0.60634 0.0283,1.10243 0.0613,1.10243 0.033,0 0.64814,-0.15449 1.36701,-0.34332 z m -1.02045,-9.66013 c 0.37502,-0.0748 0.4639,-0.16758 0.36728,-0.38338 -0.0701,-0.15658 -0.17367,-0.72126 -0.23015,-1.25484 l -0.1027,-0.97014 -1.72476,-0.0505 -1.72476,-0.0505 0.11647,0.49151 c 0.0641,0.27034 0.2239,0.80902 0.35519,1.19707 0.13129,0.38806 0.23987,0.85472 0.24128,1.03702 0.002,0.30213 0.10013,0.32045 1.10499,0.207 0.60634,-0.0685 1.32506,-0.16888 1.59716,-0.22316 z m 44.13165,-89.29343 c 2.88621,-0.17901 7.99613,-0.61763 10.23055,-0.87817 4.52008,-0.52704 4.44657,-0.51643 8.0257,-1.15905 6.00764,-1.07866 10.12332,-2.19801 13.00922,-3.53813 1.37154,-0.63691 1.87358,-1.23623 1.5184,-1.81264 -0.89481,-1.45214 -9.6376,-3.89773 -17.43804,-4.87789 -1.16416,-0.14629 -2.71198,-0.34632 -3.43958,-0.44452 -1.50078,-0.20256 -4.4439,-0.46484 -7.9375,-0.70738 -1.30969,-0.0909 -3.53219,-0.24511 -4.93889,-0.34264 -8.63339,-0.59854 -24.71783,-0.23137 -33.95486,0.7751 -4.22261,0.4601 -7.88633,0.9375 -8.90764,1.1607 -0.43656,0.0954 -1.62717,0.33971 -2.64582,0.54288 -4.73557,0.94452 -6.72685,1.51804 -8.99583,2.59093 -3.09077,1.46148 -2.50543,2.51954 2.30161,4.16035 4.00019,1.36542 10.17609,2.7007 15.24907,3.29698 0.87313,0.10262 2.18281,0.26124 2.91042,0.35249 3.82877,0.48014 8.49362,0.86804 12.6118,1.04871 3.98535,0.17484 18.64822,0.0651 22.40139,-0.16772 z m -15.43403,-2.0651 c -6.11062,-0.17549 -12.28549,-0.44197 -13.58194,-0.58615 -0.82462,-0.0917 -2.65024,-0.29029 -4.05694,-0.44129 -6.72783,-0.72223 -13.04394,-1.93918 -14.1111,-2.71884 -1.02989,-0.75242 -0.36786,-1.50343 1.87029,-2.12167 10.87376,-3.00362 39.40538,-3.74653 57.48455,-1.4968 5.64565,0.70253 9.5098,1.4982 10.63874,2.19064 0.4668,0.28632 0.5734,0.4554 0.52916,0.83934 -0.0447,0.38788 -0.25129,0.57872 -1.06914,0.98761 -0.55755,0.27876 -1.51005,0.61496 -2.11666,0.74712 -2.77311,0.60414 -3.65537,0.77975 -4.8071,0.95682 -2.56483,0.39432 -5.00338,0.70482 -6.87916,0.87593 -1.06716,0.0974 -2.13872,0.21467 -2.38125,0.26072 -1.38701,0.26334 -17.10497,0.63335 -21.51945,0.50657 z"
       id="Outline"
       inkscape:label="Outline" /></g></svg>
